<mxfile host="app.diagrams.net" modified="2024-05-28T18:21:55.575Z" agent="Mozilla/5.0 (Windows NT 10.0; Win64; x64) AppleWebKit/537.36 (KHTML, like Gecko) Chrome/125.0.0.0 Safari/537.36 Edg/125.0.0.0" etag="AekM49FJBmJvdYE7pRjv" version="24.4.8" type="device" pages="2">
  <diagram id="C5RBs43oDa-KdzZeNtuy" name="Page-1">
    <mxGraphModel dx="946" dy="1730" grid="1" gridSize="10" guides="1" tooltips="1" connect="1" arrows="1" fold="1" page="1" pageScale="1" pageWidth="827" pageHeight="1169" math="0" shadow="0">
      <root>
        <mxCell id="WIyWlLk6GJQsqaUBKTNV-0" />
        <mxCell id="WIyWlLk6GJQsqaUBKTNV-1" parent="WIyWlLk6GJQsqaUBKTNV-0" />
        <mxCell id="zkfFHV4jXpPFQw0GAbJ--0" value="Sandwich class" style="swimlane;fontStyle=2;align=center;verticalAlign=top;childLayout=stackLayout;horizontal=1;startSize=26;horizontalStack=0;resizeParent=1;resizeLast=0;collapsible=1;marginBottom=0;rounded=0;shadow=0;strokeWidth=1;" parent="WIyWlLk6GJQsqaUBKTNV-1" vertex="1">
          <mxGeometry x="450" y="20" width="130" height="258" as="geometry">
            <mxRectangle x="230" y="140" width="160" height="26" as="alternateBounds" />
          </mxGeometry>
        </mxCell>
        <mxCell id="z_r0qVwgPAnFjDJ2nWXV-27" value="add sauce():&lt;div&gt;addSandwich():&lt;/div&gt;&lt;div&gt;getSandwich size():&lt;/div&gt;&lt;div&gt;setToasted()&amp;nbsp;&lt;/div&gt;&lt;div&gt;addToppings()&lt;/div&gt;" style="text;html=1;align=center;verticalAlign=middle;resizable=0;points=[];autosize=1;strokeColor=none;fillColor=none;" vertex="1" parent="zkfFHV4jXpPFQw0GAbJ--0">
          <mxGeometry y="26" width="130" height="90" as="geometry" />
        </mxCell>
        <mxCell id="zkfFHV4jXpPFQw0GAbJ--4" value="" style="line;html=1;strokeWidth=1;align=left;verticalAlign=middle;spacingTop=-1;spacingLeft=3;spacingRight=3;rotatable=0;labelPosition=right;points=[];portConstraint=eastwest;" parent="zkfFHV4jXpPFQw0GAbJ--0" vertex="1">
          <mxGeometry y="116" width="130" height="8" as="geometry" />
        </mxCell>
        <mxCell id="zkfFHV4jXpPFQw0GAbJ--3" value="size : String&#xa;type of bread: String&#xa;isToasted: boolean&#xa;sauces: ArrayList&lt;sauces&gt;&#xa;toppings: List&lt;Topping&gt;&#xa;" style="text;align=left;verticalAlign=top;spacingLeft=4;spacingRight=4;overflow=hidden;rotatable=0;points=[[0,0.5],[1,0.5]];portConstraint=eastwest;rounded=0;shadow=0;html=0;" parent="zkfFHV4jXpPFQw0GAbJ--0" vertex="1">
          <mxGeometry y="124" width="130" height="112" as="geometry" />
        </mxCell>
        <mxCell id="z_r0qVwgPAnFjDJ2nWXV-0" style="edgeStyle=orthogonalEdgeStyle;rounded=0;orthogonalLoop=1;jettySize=auto;html=1;" edge="1" parent="WIyWlLk6GJQsqaUBKTNV-1">
          <mxGeometry relative="1" as="geometry">
            <mxPoint x="70" y="30" as="targetPoint" />
            <mxPoint x="70" y="30" as="sourcePoint" />
          </mxGeometry>
        </mxCell>
        <mxCell id="WR6AhVKnaAZJSJ1VE2qA-0" value="Homescreen:&lt;div&gt;Main()&lt;/div&gt;&lt;div&gt;exit: boolean&lt;br&gt;&lt;br&gt;&lt;/div&gt;&lt;div&gt;&lt;div&gt;- newOrder()&lt;/div&gt;&lt;div&gt;- exit()&lt;/div&gt;&lt;/div&gt;" style="rounded=0;whiteSpace=wrap;html=1;" parent="WIyWlLk6GJQsqaUBKTNV-1" vertex="1">
          <mxGeometry x="10" y="20" width="190" height="90" as="geometry" />
        </mxCell>
        <mxCell id="z_r0qVwgPAnFjDJ2nWXV-3" value="&lt;div&gt;&lt;span style=&quot;text-wrap: nowrap;&quot;&gt;&lt;br&gt;&lt;/span&gt;&lt;/div&gt;&lt;div&gt;&lt;span style=&quot;text-wrap: nowrap;&quot;&gt;&lt;br&gt;&lt;/span&gt;&lt;/div&gt;&lt;div&gt;&lt;span style=&quot;text-wrap: nowrap;&quot;&gt;&lt;br&gt;&lt;/span&gt;&lt;/div&gt;&lt;div&gt;&lt;span style=&quot;text-wrap: nowrap;&quot;&gt;&lt;br&gt;&lt;/span&gt;&lt;/div&gt;&lt;div&gt;&lt;span style=&quot;text-wrap: nowrap;&quot;&gt;extras: boolean&lt;/span&gt;&lt;/div&gt;&lt;div&gt;&lt;span style=&quot;text-wrap: nowrap;&quot;&gt;&lt;br&gt;&lt;/span&gt;&lt;/div&gt;&lt;div&gt;&lt;span style=&quot;text-wrap: nowrap;&quot;&gt;&lt;br&gt;&lt;/span&gt;&lt;/div&gt;&lt;div&gt;&lt;span style=&quot;text-wrap: nowrap;&quot;&gt;&lt;br&gt;&lt;/span&gt;&lt;/div&gt;&lt;div&gt;&lt;span style=&quot;text-wrap: nowrap;&quot;&gt;&lt;br&gt;&lt;/span&gt;&lt;/div&gt;&lt;div&gt;&lt;span style=&quot;text-wrap: nowrap;&quot;&gt;name: String&lt;/span&gt;&lt;div style=&quot;text-wrap: nowrap;&quot;&gt;price : double&lt;/div&gt;&lt;div style=&quot;text-wrap: nowrap;&quot;&gt;type:topping&lt;/div&gt;&lt;/div&gt;&lt;div style=&quot;text-wrap: nowrap;&quot;&gt;&lt;br&gt;&lt;/div&gt;&lt;div&gt;&lt;div&gt;&lt;span style=&quot;text-wrap: nowrap;&quot;&gt;double : price&lt;/span&gt;&lt;div style=&quot;text-wrap: nowrap;&quot;&gt;getType():topping&lt;/div&gt;&lt;div style=&quot;text-wrap: nowrap;&quot;&gt;getName: String&lt;/div&gt;&lt;div style=&quot;text-wrap: nowrap;&quot;&gt;getPrice()&lt;/div&gt;&lt;/div&gt;&lt;div&gt;&lt;br&gt;&lt;/div&gt;&lt;div&gt;&lt;br&gt;&lt;/div&gt;&lt;/div&gt;" style="whiteSpace=wrap;html=1;aspect=fixed;" vertex="1" parent="WIyWlLk6GJQsqaUBKTNV-1">
          <mxGeometry x="827" y="20" width="200" height="200" as="geometry" />
        </mxCell>
        <mxCell id="z_r0qVwgPAnFjDJ2nWXV-20" value="I Topping parent" style="swimlane;whiteSpace=wrap;html=1;" vertex="1" parent="WIyWlLk6GJQsqaUBKTNV-1">
          <mxGeometry x="600" y="20" width="200" height="200" as="geometry" />
        </mxCell>
        <mxCell id="z_r0qVwgPAnFjDJ2nWXV-21" value="" style="line;strokeWidth=2;html=1;" vertex="1" parent="z_r0qVwgPAnFjDJ2nWXV-20">
          <mxGeometry y="100" width="200" height="10" as="geometry" />
        </mxCell>
        <mxCell id="z_r0qVwgPAnFjDJ2nWXV-22" value="name: String&lt;div&gt;price : double&lt;/div&gt;&lt;div&gt;type:topping&lt;/div&gt;" style="text;html=1;align=center;verticalAlign=middle;resizable=0;points=[];autosize=1;strokeColor=none;fillColor=none;" vertex="1" parent="z_r0qVwgPAnFjDJ2nWXV-20">
          <mxGeometry x="50" y="30" width="100" height="60" as="geometry" />
        </mxCell>
        <mxCell id="z_r0qVwgPAnFjDJ2nWXV-23" value="&lt;div&gt;&lt;br&gt;&lt;/div&gt;&lt;div&gt;getName: String&lt;/div&gt;&lt;div&gt;getPrice()&lt;/div&gt;&lt;div&gt;getType()&lt;/div&gt;&lt;div&gt;&lt;br&gt;&lt;/div&gt;&lt;div&gt;&lt;br&gt;&lt;/div&gt;" style="text;html=1;align=center;verticalAlign=middle;resizable=0;points=[];autosize=1;strokeColor=none;fillColor=none;" vertex="1" parent="z_r0qVwgPAnFjDJ2nWXV-20">
          <mxGeometry x="25" y="100" width="110" height="100" as="geometry" />
        </mxCell>
        <mxCell id="z_r0qVwgPAnFjDJ2nWXV-42" value="Drink&lt;div&gt;&lt;br&gt;&lt;div&gt;name: String&lt;br&gt;&lt;div&gt;size: int&lt;/div&gt;&lt;div&gt;flavor: String&amp;nbsp;&lt;/div&gt;&lt;div&gt;&lt;br&gt;&lt;/div&gt;&lt;div&gt;getFlavor)&lt;/div&gt;&lt;/div&gt;&lt;div&gt;&lt;span style=&quot;background-color: initial;&quot;&gt;getSize(): double&lt;/span&gt;&lt;br&gt;&lt;/div&gt;&lt;div&gt;getPrice()&lt;/div&gt;&lt;div&gt;&lt;br&gt;&lt;/div&gt;&lt;/div&gt;" style="shape=ext;double=1;rounded=0;whiteSpace=wrap;html=1;" vertex="1" parent="WIyWlLk6GJQsqaUBKTNV-1">
          <mxGeometry x="790" y="250" width="120" height="170" as="geometry" />
        </mxCell>
        <mxCell id="z_r0qVwgPAnFjDJ2nWXV-43" value="" style="line;strokeWidth=4;html=1;perimeter=backbonePerimeter;points=[];outlineConnect=0;" vertex="1" parent="WIyWlLk6GJQsqaUBKTNV-1">
          <mxGeometry x="790" y="278" width="120" height="10" as="geometry" />
        </mxCell>
        <mxCell id="z_r0qVwgPAnFjDJ2nWXV-48" value="" style="verticalLabelPosition=bottom;verticalAlign=top;html=1;shape=mxgraph.basic.rect;fillColor2=none;strokeWidth=1;size=20;indent=5;" vertex="1" parent="WIyWlLk6GJQsqaUBKTNV-1">
          <mxGeometry x="940" y="300" width="120" height="100" as="geometry" />
        </mxCell>
        <mxCell id="z_r0qVwgPAnFjDJ2nWXV-54" value="" style="line;strokeWidth=2;html=1;" vertex="1" parent="WIyWlLk6GJQsqaUBKTNV-1">
          <mxGeometry x="940" y="360" width="120" height="10" as="geometry" />
        </mxCell>
        <mxCell id="z_r0qVwgPAnFjDJ2nWXV-65" value="Chips&lt;div&gt;&amp;nbsp;&lt;/div&gt;&lt;div&gt;type: String&lt;br&gt;&lt;div&gt;&lt;br&gt;&lt;/div&gt;&lt;/div&gt;" style="text;html=1;align=center;verticalAlign=middle;whiteSpace=wrap;rounded=0;" vertex="1" parent="WIyWlLk6GJQsqaUBKTNV-1">
          <mxGeometry x="930" y="310" width="120" height="50" as="geometry" />
        </mxCell>
        <mxCell id="z_r0qVwgPAnFjDJ2nWXV-71" value="" style="line;strokeWidth=2;html=1;" vertex="1" parent="WIyWlLk6GJQsqaUBKTNV-1">
          <mxGeometry x="940" y="320" width="120" height="10" as="geometry" />
        </mxCell>
        <mxCell id="z_r0qVwgPAnFjDJ2nWXV-73" value="getPrice()" style="text;html=1;align=center;verticalAlign=middle;whiteSpace=wrap;rounded=0;" vertex="1" parent="WIyWlLk6GJQsqaUBKTNV-1">
          <mxGeometry x="935" y="370" width="110" height="30" as="geometry" />
        </mxCell>
        <mxCell id="z_r0qVwgPAnFjDJ2nWXV-75" value="&lt;b&gt;C Premium topping extend&lt;/b&gt;&lt;div&gt;&lt;b&gt;&lt;br&gt;&lt;/b&gt;&lt;/div&gt;" style="text;html=1;align=center;verticalAlign=middle;whiteSpace=wrap;rounded=0;" vertex="1" parent="WIyWlLk6GJQsqaUBKTNV-1">
          <mxGeometry x="830" y="20" width="200" height="30" as="geometry" />
        </mxCell>
        <mxCell id="z_r0qVwgPAnFjDJ2nWXV-76" value="" style="whiteSpace=wrap;html=1;aspect=fixed;" vertex="1" parent="WIyWlLk6GJQsqaUBKTNV-1">
          <mxGeometry x="1060" y="20" width="160" height="160" as="geometry" />
        </mxCell>
        <mxCell id="z_r0qVwgPAnFjDJ2nWXV-78" value="" style="line;strokeWidth=2;html=1;" vertex="1" parent="WIyWlLk6GJQsqaUBKTNV-1">
          <mxGeometry x="1060" y="40" width="160" height="10" as="geometry" />
        </mxCell>
        <mxCell id="z_r0qVwgPAnFjDJ2nWXV-79" value="Meat" style="text;html=1;align=center;verticalAlign=middle;whiteSpace=wrap;rounded=0;" vertex="1" parent="WIyWlLk6GJQsqaUBKTNV-1">
          <mxGeometry x="1060" y="20" width="125" height="30" as="geometry" />
        </mxCell>
        <mxCell id="z_r0qVwgPAnFjDJ2nWXV-80" value="" style="swimlane;startSize=0;" vertex="1" parent="WIyWlLk6GJQsqaUBKTNV-1">
          <mxGeometry x="220" y="20" width="200" height="220" as="geometry" />
        </mxCell>
        <mxCell id="z_r0qVwgPAnFjDJ2nWXV-81" value="" style="line;strokeWidth=2;html=1;" vertex="1" parent="z_r0qVwgPAnFjDJ2nWXV-80">
          <mxGeometry y="20" width="200" height="10" as="geometry" />
        </mxCell>
        <mxCell id="z_r0qVwgPAnFjDJ2nWXV-82" value="Order Class&amp;nbsp;" style="text;html=1;align=center;verticalAlign=middle;whiteSpace=wrap;rounded=0;" vertex="1" parent="z_r0qVwgPAnFjDJ2nWXV-80">
          <mxGeometry x="34" width="86" height="20" as="geometry" />
        </mxCell>
        <mxCell id="z_r0qVwgPAnFjDJ2nWXV-83" value="&lt;br style=&quot;padding: 0px; margin: 0px;&quot;&gt;&lt;br style=&quot;padding: 0px; margin: 0px;&quot;&gt;&lt;br&gt;&lt;div&gt;addSandwich()&lt;br style=&quot;padding: 0px; margin: 0px;&quot;&gt;addDrink()&lt;br style=&quot;padding: 0px; margin: 0px;&quot;&gt;addChips()&lt;/div&gt;&lt;div&gt;Checkout()&lt;br style=&quot;padding: 0px; margin: 0px;&quot;&gt;&lt;br style=&quot;padding: 0px; margin: 0px;&quot;&gt;totalPrice :double&lt;br style=&quot;padding: 0px; margin: 0px;&quot;&gt;saveOrder()&lt;br style=&quot;padding: 0px; margin: 0px;&quot;&gt;calculatePrice&lt;div style=&quot;padding: 0px; margin: 0px;&quot;&gt;&lt;br style=&quot;padding: 0px; margin: 0px;&quot;&gt;&lt;/div&gt;&lt;div style=&quot;padding: 0px; margin: 0px;&quot;&gt;&lt;br style=&quot;padding: 0px; margin: 0px; text-wrap: nowrap;&quot;&gt;&lt;/div&gt;&lt;/div&gt;" style="text;html=1;align=center;verticalAlign=middle;whiteSpace=wrap;rounded=0;" vertex="1" parent="z_r0qVwgPAnFjDJ2nWXV-80">
          <mxGeometry x="-6" y="90" width="200" height="140" as="geometry" />
        </mxCell>
        <mxCell id="z_r0qVwgPAnFjDJ2nWXV-122" value="" style="endArrow=classic;html=1;rounded=0;" edge="1" parent="z_r0qVwgPAnFjDJ2nWXV-80">
          <mxGeometry width="50" height="50" relative="1" as="geometry">
            <mxPoint x="75" y="220" as="sourcePoint" />
            <mxPoint x="70" y="300" as="targetPoint" />
          </mxGeometry>
        </mxCell>
        <mxCell id="z_r0qVwgPAnFjDJ2nWXV-126" value="" style="line;strokeWidth=4;html=1;perimeter=backbonePerimeter;points=[];outlineConnect=0;" vertex="1" parent="z_r0qVwgPAnFjDJ2nWXV-80">
          <mxGeometry x="-3" y="105" width="193" height="10" as="geometry" />
        </mxCell>
        <mxCell id="z_r0qVwgPAnFjDJ2nWXV-125" value="sandwich: List &amp;lt;sandwich&amp;gt;&lt;div&gt;drinks: List&amp;lt;Drinks&amp;gt;&lt;/div&gt;&lt;div&gt;chips: List&amp;lt;Chips&amp;gt;&lt;/div&gt;" style="text;html=1;align=center;verticalAlign=middle;resizable=0;points=[];autosize=1;strokeColor=none;fillColor=none;" vertex="1" parent="z_r0qVwgPAnFjDJ2nWXV-80">
          <mxGeometry x="9" y="20" width="170" height="60" as="geometry" />
        </mxCell>
        <mxCell id="z_r0qVwgPAnFjDJ2nWXV-85" value="&lt;div&gt;&lt;br&gt;&lt;/div&gt;&lt;div&gt;&lt;span style=&quot;text-wrap: nowrap;&quot;&gt;fileName: String&lt;/span&gt;&lt;/div&gt;&lt;div&gt;&lt;span style=&quot;text-wrap: nowrap;&quot;&gt;mkir()&lt;/span&gt;&lt;/div&gt;&lt;div&gt;&lt;span style=&quot;text-wrap: nowrap;&quot;&gt;Createtxt()&lt;/span&gt;&lt;/div&gt;&lt;div&gt;&lt;span style=&quot;text-wrap: nowrap;&quot;&gt;generateReceiptFile (order order) : String&lt;/span&gt;&lt;/div&gt;&lt;div&gt;&lt;div&gt;&lt;br&gt;&lt;/div&gt;&lt;/div&gt;" style="whiteSpace=wrap;html=1;aspect=fixed;" vertex="1" parent="WIyWlLk6GJQsqaUBKTNV-1">
          <mxGeometry x="470" y="330" width="220" height="220" as="geometry" />
        </mxCell>
        <mxCell id="z_r0qVwgPAnFjDJ2nWXV-86" value="" style="line;strokeWidth=2;html=1;" vertex="1" parent="WIyWlLk6GJQsqaUBKTNV-1">
          <mxGeometry x="470" y="340" width="220" height="10" as="geometry" />
        </mxCell>
        <mxCell id="z_r0qVwgPAnFjDJ2nWXV-87" value="name : String&lt;div&gt;price : double&lt;/div&gt;" style="text;html=1;align=center;verticalAlign=middle;whiteSpace=wrap;rounded=0;" vertex="1" parent="WIyWlLk6GJQsqaUBKTNV-1">
          <mxGeometry x="1052.5" y="50" width="140" height="40" as="geometry" />
        </mxCell>
        <mxCell id="z_r0qVwgPAnFjDJ2nWXV-88" value="" style="line;strokeWidth=2;html=1;" vertex="1" parent="WIyWlLk6GJQsqaUBKTNV-1">
          <mxGeometry x="1060" y="100" width="160" height="10" as="geometry" />
        </mxCell>
        <mxCell id="z_r0qVwgPAnFjDJ2nWXV-89" value="getName(): String&lt;div&gt;getPrice(): double&lt;/div&gt;" style="text;html=1;align=center;verticalAlign=middle;whiteSpace=wrap;rounded=0;" vertex="1" parent="WIyWlLk6GJQsqaUBKTNV-1">
          <mxGeometry x="1070" y="130" width="140" height="35" as="geometry" />
        </mxCell>
        <mxCell id="z_r0qVwgPAnFjDJ2nWXV-91" value="Receipt" style="text;html=1;align=center;verticalAlign=middle;whiteSpace=wrap;rounded=0;" vertex="1" parent="WIyWlLk6GJQsqaUBKTNV-1">
          <mxGeometry x="530" y="320" width="60" height="30" as="geometry" />
        </mxCell>
        <mxCell id="z_r0qVwgPAnFjDJ2nWXV-93" value="" style="line;strokeWidth=2;html=1;" vertex="1" parent="WIyWlLk6GJQsqaUBKTNV-1">
          <mxGeometry x="830" y="40" width="190" height="10" as="geometry" />
        </mxCell>
        <mxCell id="z_r0qVwgPAnFjDJ2nWXV-100" value="" style="verticalLabelPosition=bottom;verticalAlign=top;html=1;shape=mxgraph.basic.patternFillRect;fillStyle=hor;step=5;fillStrokeWidth=0.2;fillStrokeColor=#dddddd;" vertex="1" parent="WIyWlLk6GJQsqaUBKTNV-1">
          <mxGeometry x="1080" y="230" width="180" height="140" as="geometry" />
        </mxCell>
        <mxCell id="z_r0qVwgPAnFjDJ2nWXV-101" value="Cheese" style="text;html=1;align=center;verticalAlign=middle;whiteSpace=wrap;rounded=0;" vertex="1" parent="WIyWlLk6GJQsqaUBKTNV-1">
          <mxGeometry x="1132.5" y="230" width="60" height="30" as="geometry" />
        </mxCell>
        <mxCell id="z_r0qVwgPAnFjDJ2nWXV-102" value="" style="line;strokeWidth=2;html=1;" vertex="1" parent="WIyWlLk6GJQsqaUBKTNV-1">
          <mxGeometry x="1080" y="250" width="180" height="10" as="geometry" />
        </mxCell>
        <mxCell id="z_r0qVwgPAnFjDJ2nWXV-103" value="name: String&lt;div&gt;price: double&lt;/div&gt;" style="text;html=1;align=center;verticalAlign=middle;whiteSpace=wrap;rounded=0;" vertex="1" parent="WIyWlLk6GJQsqaUBKTNV-1">
          <mxGeometry x="1100" y="258" width="120" height="32" as="geometry" />
        </mxCell>
        <mxCell id="z_r0qVwgPAnFjDJ2nWXV-104" value="" style="line;strokeWidth=2;html=1;" vertex="1" parent="WIyWlLk6GJQsqaUBKTNV-1">
          <mxGeometry x="1082.5" y="290" width="177.5" height="10" as="geometry" />
        </mxCell>
        <mxCell id="z_r0qVwgPAnFjDJ2nWXV-105" value="getName(): String&lt;div&gt;getPrice(): double&lt;/div&gt;" style="text;html=1;align=center;verticalAlign=middle;whiteSpace=wrap;rounded=0;" vertex="1" parent="WIyWlLk6GJQsqaUBKTNV-1">
          <mxGeometry x="1100" y="300" width="140" height="60" as="geometry" />
        </mxCell>
        <mxCell id="z_r0qVwgPAnFjDJ2nWXV-107" value="" style="swimlane;startSize=0;" vertex="1" parent="WIyWlLk6GJQsqaUBKTNV-1">
          <mxGeometry x="200" y="330" width="170" height="195" as="geometry" />
        </mxCell>
        <mxCell id="z_r0qVwgPAnFjDJ2nWXV-108" value="Customer class" style="text;html=1;align=center;verticalAlign=middle;resizable=0;points=[];autosize=1;strokeColor=none;fillColor=none;" vertex="1" parent="z_r0qVwgPAnFjDJ2nWXV-107">
          <mxGeometry x="10" width="110" height="30" as="geometry" />
        </mxCell>
        <mxCell id="z_r0qVwgPAnFjDJ2nWXV-112" value="customer name: String&lt;br style=&quot;padding: 0px; margin: 0px;&quot;&gt;orderNumber String&lt;div&gt;orderTime&lt;/div&gt;&lt;div&gt;OrderDate&lt;/div&gt;" style="text;html=1;align=center;verticalAlign=middle;whiteSpace=wrap;rounded=0;" vertex="1" parent="z_r0qVwgPAnFjDJ2nWXV-107">
          <mxGeometry x="20" y="50" width="130" height="30" as="geometry" />
        </mxCell>
        <mxCell id="z_r0qVwgPAnFjDJ2nWXV-113" value="" style="line;strokeWidth=2;html=1;" vertex="1" parent="z_r0qVwgPAnFjDJ2nWXV-107">
          <mxGeometry y="20" width="170" height="10" as="geometry" />
        </mxCell>
        <mxCell id="z_r0qVwgPAnFjDJ2nWXV-115" value="" style="line;strokeWidth=4;html=1;perimeter=backbonePerimeter;points=[];outlineConnect=0;" vertex="1" parent="z_r0qVwgPAnFjDJ2nWXV-107">
          <mxGeometry y="100" width="170" height="10" as="geometry" />
        </mxCell>
        <mxCell id="z_r0qVwgPAnFjDJ2nWXV-117" value="getCustomerNam()&lt;div&gt;getOrderNumber()&lt;/div&gt;&lt;div&gt;getOrderTime()&lt;/div&gt;&lt;div&gt;getOrderDate()&lt;/div&gt;&lt;div&gt;&lt;br&gt;&lt;/div&gt;&lt;div&gt;&lt;br&gt;&lt;/div&gt;" style="text;html=1;align=center;verticalAlign=middle;resizable=0;points=[];autosize=1;strokeColor=none;fillColor=none;" vertex="1" parent="z_r0qVwgPAnFjDJ2nWXV-107">
          <mxGeometry x="20" y="110" width="130" height="100" as="geometry" />
        </mxCell>
        <mxCell id="z_r0qVwgPAnFjDJ2nWXV-121" value="" style="endArrow=classic;html=1;rounded=0;entryX=0.25;entryY=0;entryDx=0;entryDy=0;" edge="1" parent="WIyWlLk6GJQsqaUBKTNV-1" target="z_r0qVwgPAnFjDJ2nWXV-101">
          <mxGeometry width="50" height="50" relative="1" as="geometry">
            <mxPoint x="1132.5" y="180" as="sourcePoint" />
            <mxPoint x="1182.5" y="130" as="targetPoint" />
          </mxGeometry>
        </mxCell>
        <mxCell id="z_r0qVwgPAnFjDJ2nWXV-127" value="Regular toppings&lt;div&gt;&lt;br&gt;&lt;/div&gt;&lt;div&gt;&lt;br&gt;name : string&lt;div&gt;&lt;br&gt;&lt;/div&gt;&lt;div&gt;&lt;br&gt;&lt;/div&gt;&lt;div&gt;&lt;br&gt;&lt;/div&gt;&lt;div&gt;getName()&lt;/div&gt;&lt;/div&gt;" style="whiteSpace=wrap;html=1;" vertex="1" parent="WIyWlLk6GJQsqaUBKTNV-1">
          <mxGeometry x="760" y="-210" width="220" height="160" as="geometry" />
        </mxCell>
        <mxCell id="z_r0qVwgPAnFjDJ2nWXV-128" value="" style="line;strokeWidth=2;html=1;" vertex="1" parent="WIyWlLk6GJQsqaUBKTNV-1">
          <mxGeometry x="760" y="-160" width="220" height="10" as="geometry" />
        </mxCell>
        <mxCell id="z_r0qVwgPAnFjDJ2nWXV-132" value="" style="edgeStyle=elbowEdgeStyle;elbow=vertical;endArrow=classic;html=1;curved=0;rounded=0;endSize=8;startSize=8;" edge="1" parent="WIyWlLk6GJQsqaUBKTNV-1">
          <mxGeometry width="50" height="50" relative="1" as="geometry">
            <mxPoint x="740" y="10" as="sourcePoint" />
            <mxPoint x="790" y="-40" as="targetPoint" />
          </mxGeometry>
        </mxCell>
        <mxCell id="Ly9t8yuWEF46rr8f25B8-0" value="" style="whiteSpace=wrap;html=1;aspect=fixed;" vertex="1" parent="WIyWlLk6GJQsqaUBKTNV-1">
          <mxGeometry x="1241" y="60" width="80" height="80" as="geometry" />
        </mxCell>
      </root>
    </mxGraphModel>
  </diagram>
  <diagram id="iugZb3BKN8xR-jI5sGEv" name="Page-2">
    <mxGraphModel dx="444" dy="561" grid="1" gridSize="10" guides="1" tooltips="1" connect="1" arrows="1" fold="1" page="1" pageScale="1" pageWidth="850" pageHeight="1100" math="0" shadow="0">
      <root>
        <mxCell id="0" />
        <mxCell id="1" parent="0" />
      </root>
    </mxGraphModel>
  </diagram>
</mxfile>
